<svg width="28" height="24" viewBox="0 0 28 24" fill="none" xmlns="http://www.w3.org/2000/svg">
<g clip-path="url(#clip0_4931_3643)">
<path d="M6.30772 1.99411C9.30004 4.25468 12.5186 8.83818 13.7003 11.298C14.8821 8.83836 18.1005 4.25464 21.0929 1.99411C23.252 0.362968 26.7503 -0.899115 26.7503 3.1169C26.7503 3.91895 26.2933 9.85456 26.0253 10.8182C25.0937 14.1684 21.6988 15.0229 18.6791 14.5057C23.9576 15.4097 25.3004 18.4042 22.4004 21.3987C16.8929 27.0858 14.4845 19.9718 13.8671 18.1489C13.754 17.8147 13.701 17.6584 13.7002 17.7913C13.6995 17.6584 13.6465 17.8147 13.5334 18.1489C12.9163 19.9718 10.5079 27.086 5.00005 21.3987C2.10008 18.4042 3.44283 15.4096 8.72141 14.5057C5.70156 15.0229 2.30667 14.1684 1.37517 10.8182C1.10714 9.85447 0.650177 3.91886 0.650177 3.1169C0.650177 -0.899115 4.14856 0.362968 6.30757 1.99411H6.30772Z" fill="#2151F3"/>
</g>
<defs>
<clipPath id="clip0_4931_3643">
<rect width="27" height="24" fill="white" transform="translate(0.20018)"/>
</clipPath>
</defs>
</svg>
