<svg width="37" height="32" viewBox="0 0 37 32" fill="none" xmlns="http://www.w3.org/2000/svg">
<path d="M8.74262 2.65842C12.7324 5.67252 17.0238 11.7839 18.5994 15.0636C20.1751 11.7841 24.4663 5.67246 28.4562 2.65842C31.335 0.483571 35.9994 -1.19921 35.9994 4.15548C35.9994 5.22488 35.3901 13.139 35.0328 14.4239C33.7906 18.8908 29.2641 20.0301 25.2378 19.3406C32.2758 20.5459 34.0662 24.5386 30.1996 28.5312C22.8562 36.114 19.645 26.6287 18.8218 24.1982C18.6709 23.7526 18.6004 23.5442 18.5993 23.7214C18.5983 23.5442 18.5277 23.7526 18.3769 24.1982C17.554 26.6287 14.3429 36.1142 6.99906 28.5312C3.13242 24.5386 4.92276 20.5457 11.9609 19.3406C7.9344 20.0301 3.40788 18.8908 2.16588 14.4239C1.80851 13.1389 1.19922 5.22476 1.19922 4.15548C1.19922 -1.19921 5.86374 0.483571 8.74242 2.65842H8.74262Z" fill="#E8DEC4"/>
</svg>
