<svg width="1760" height="264" viewBox="0 0 1760 264" fill="none" xmlns="http://www.w3.org/2000/svg">
<g clip-path="url(#clip0_4461_5062)">
<path d="M54.2633 87.4438C54.2633 99.4927 44.5479 107.153 29.4827 107.153H0V68.168H29.4827C38.4856 68.168 45.7008 70.9668 49.9238 75.6707H49.8978C52.6959 78.7979 54.2633 82.7398 54.2633 87.4569V87.4438Z" fill="white"/>
<path d="M164.81 243.069H88.1113V248.89H164.81V243.069Z" fill="white"/>
<path d="M149.409 0H143.683V264H149.409V0Z" fill="white"/>
<path d="M149.422 17.1734V248.167H143.683L115.431 248.088L58.6288 247.943C65.6756 246.892 72.1007 245.237 77.9299 243.082C96.4926 236.197 108.863 224.135 115.431 209.629C117.413 205.279 118.851 200.694 119.796 195.977C119.939 195.32 120.055 194.663 120.159 194.006C120.328 193.033 120.47 192.061 120.587 191.075V190.852C120.962 188.132 121.118 185.32 121.118 182.482C121.118 156.978 107.076 139.805 87.3991 132.131C87.1918 132.053 86.9716 131.974 86.7644 131.882C86.7644 131.882 86.7514 131.882 86.7384 131.882C86.57 131.816 86.4146 131.763 86.2462 131.698C84.9508 131.225 83.6425 130.791 82.3083 130.397C82.8523 130.16 83.3834 129.898 83.9404 129.622C83.9923 129.556 84.0959 129.556 84.1606 129.517C86.2721 128.505 88.4224 127.362 90.5598 126.074C90.5728 126.074 90.5857 126.061 90.5987 126.048C94.148 123.906 97.6455 121.357 100.832 118.348C101.687 117.52 102.568 116.692 103.358 115.812C110.768 107.928 116.118 97.1802 116.118 82.6215C116.118 80.3221 116.001 78.1278 115.781 75.9335H115.794C115.612 74.1334 115.353 72.3727 115.029 70.6383C115.004 70.4674 114.965 70.2966 114.926 70.1258C110.509 47.5521 94.2128 30.1947 71.1033 21.47C66.3622 19.6831 61.3361 18.2508 56.064 17.226L115.444 17.1997H143.696L149.422 17.1865V17.1734Z" fill="white"/>
<path d="M149.59 193.992V248.968H115.431V209.615C117.413 205.266 118.85 200.68 119.796 195.963C119.939 195.306 120.055 194.649 120.159 193.992H149.59Z" fill="white"/>
<path d="M164.862 21.4569V15.6492L76.6602 15.6492V21.4569L164.862 21.4569Z" fill="white"/>
<path d="M149.603 70.1127V131.869H86.7383C86.5699 131.803 86.4144 131.75 86.246 131.685C84.9507 131.212 83.6423 130.778 82.3081 130.384C82.8522 130.147 83.3833 129.885 83.9403 129.609C83.9921 129.543 84.0957 129.543 84.1605 129.503C86.272 128.492 88.4223 127.349 90.5596 126.061C90.5726 126.061 90.5856 126.048 90.5985 126.035C94.1478 123.893 97.6453 121.344 100.832 118.335C101.687 117.507 102.568 116.679 103.358 115.799C110.767 107.915 116.117 97.167 116.117 82.6084C116.117 80.309 116.001 78.1147 115.781 75.9204H115.794C115.612 74.1202 115.353 72.3595 115.029 70.6251C115.003 70.4543 114.965 70.2835 114.926 70.1127H149.603Z" fill="white"/>
<path d="M149.512 131.672V195.963H119.796C119.939 195.306 120.055 194.649 120.159 193.992C120.327 193.02 120.47 192.048 120.586 191.062V190.839C120.962 188.119 121.118 185.307 121.118 182.469C121.118 156.965 107.076 139.792 87.399 132.118C87.1917 132.039 86.9715 131.961 86.7642 131.869C86.7642 131.869 86.7513 131.869 86.7383 131.869C86.5699 131.803 86.4145 131.75 86.2461 131.685H149.525L149.512 131.672Z" fill="white"/>
<path d="M164.849 126.048V131.869H86.7642C86.7642 131.869 86.7512 131.869 86.7383 131.869C86.5699 131.803 86.4144 131.75 86.246 131.685C84.9507 131.212 83.6423 130.778 82.3081 130.384C82.8522 130.147 83.3833 129.885 83.9403 129.609C83.9921 129.543 84.0957 129.543 84.1605 129.503C86.272 128.492 88.4223 127.349 90.5596 126.061H164.862L164.849 126.048Z" fill="white"/>
<path d="M149.59 15.636H115.431V70.612H149.59V15.636Z" fill="white"/>
<path d="M115.431 15.6361V70.612H115.029C115.003 70.4412 114.965 70.2703 114.926 70.0995C110.509 47.5258 94.2127 30.1684 71.1032 21.4437C66.3622 19.6568 61.3361 18.2246 56.0639 17.1997C53.9654 16.7792 51.841 16.4376 49.6648 16.1485C48.0715 15.9383 46.4523 15.7675 44.8071 15.6229H115.431V15.6361Z" fill="white"/>
<path d="M115.431 209.629V248.982H43.3174V248.929H49.574C49.7813 248.929 50.0015 248.903 50.2088 248.89C53.1104 248.666 55.9214 248.351 58.6417 247.943C65.6885 246.892 72.1136 245.237 77.9427 243.082C96.5055 236.197 108.876 224.135 115.444 209.629H115.431Z" fill="white"/>
<path d="M58.9784 175.702C58.9784 181.93 56.5302 187.028 52.1129 190.576H52.1C52.1 190.576 51.9316 190.76 51.8409 190.8H51.8279C50.3642 191.956 48.6931 192.941 46.8408 193.73C45.7267 194.203 44.5479 194.61 43.3044 194.938C42.0738 195.267 40.7914 195.53 39.4442 195.714C37.7602 195.95 35.9726 196.068 34.1202 196.068H0V155.967H34.1202C49.2501 155.967 58.9784 163.627 58.9784 175.702Z" fill="white"/>
<path d="M227.973 34.1366H322.717C366.449 34.3206 388.302 50.4691 388.302 82.5953C388.302 93.5537 385.063 102.673 378.586 109.978C372.109 117.284 362.563 121.843 349.972 123.67V123.945C364.182 125.772 374.895 130.423 382.097 137.913C389.286 145.402 392.9 154.981 392.9 166.662C392.9 182.535 387.499 194.544 376.708 202.665C365.905 210.785 349.803 214.845 328.391 214.845H227.986V34.1366H227.973ZM311.11 105.865C324.958 105.865 331.888 100.491 331.888 89.7169C331.888 78.9425 324.958 73.5684 311.11 73.5684H280.876V105.879H311.11V105.865ZM315.696 177.056C329.543 177.056 336.474 171.576 336.474 160.631C336.474 149.686 329.543 144.469 315.696 144.469H280.876V177.056H315.696Z" fill="white"/>
<path d="M555.107 172.943V214.832H415.297V34.1366H470.364V172.943H555.12H555.107Z" fill="white"/>
<path d="M739.996 138.99C739.996 191.378 712.288 217.565 656.859 217.565C601.43 217.565 573.722 191.378 573.722 138.99V34.1366H629.319V142.012C629.319 163.916 638.49 174.861 656.846 174.861C675.201 174.861 684.645 163.903 684.645 142.012V34.1366H739.983V138.99H739.996Z" fill="white"/>
<path d="M916.258 172.943V214.832H769.155V34.1366H912.748V76.0255H824.209V105.327H894.923V144.207H824.209V172.956H916.245L916.258 172.943Z" fill="white"/>
<path d="M1080.9 49.7333C1093.14 60.1398 1099.26 75.4737 1099.26 95.7349C1099.26 114.905 1093.09 129.543 1080.76 139.674C1068.43 149.804 1050.57 154.863 1027.18 154.863H993.708V214.819H938.642V34.1366H1027.18C1050.76 34.1366 1068.66 39.3399 1080.89 49.7464L1080.9 49.7333ZM1037.71 110.517C1041.84 107.232 1043.92 102.121 1043.92 95.183C1043.92 88.2453 1041.84 83.134 1037.71 79.8491C1033.57 76.5642 1027.09 74.9218 1018.28 74.9218H993.721V115.444H1018.28C1027.1 115.444 1033.58 113.802 1037.71 110.517Z" fill="white"/>
<path d="M1200.74 152.13H1178.33V214.832H1124.35V34.1366H1215.58C1238.25 34.1366 1255.53 39.1559 1267.41 49.1945C1279.29 59.2332 1285.22 73.9363 1285.22 93.2777C1285.22 119.557 1274.16 137.177 1252.02 146.125L1295.48 214.845H1235.28L1200.74 152.143V152.13ZM1178.34 114.078H1205.06C1214.06 114.078 1220.45 112.58 1224.23 109.558C1228.02 106.549 1229.91 101.582 1229.91 94.6311C1229.91 87.6803 1227.98 82.6741 1224.1 79.5732C1220.23 76.4723 1213.88 74.9218 1205.07 74.9218H1178.35V114.078H1178.34Z" fill="white"/>
<path d="M1367.81 214.832H1312.75V34.1366H1367.81V214.832Z" fill="white"/>
<path d="M1568.63 214.832H1508.18L1459.59 125.299L1448.25 100.662H1447.71L1448.79 136.533V214.832H1400.74V34.1366H1460.94L1509.53 123.67L1521.13 148.306H1521.4L1520.33 112.435V34.1366H1568.65V214.832H1568.63Z" fill="white"/>
<path d="M1760 76.0255H1703.31V214.832H1648.25V76.0255H1591.03V34.1366H1760V76.0255Z" fill="white"/>
</g>
<defs>
<clipPath id="clip0_4461_5062">
<rect width="1760" height="264" fill="white"/>
</clipPath>
</defs>
</svg>
