<svg width="24" height="24" viewBox="0 0 24 24" fill="none" xmlns="http://www.w3.org/2000/svg">
<g clip-path="url(#clip0_4931_3639)">
<path d="M22.2234 0H1.77187C0.792186 0 0 0.773438 0 1.72969V22.2656C0 23.2219 0.792186 24 1.77187 24H22.2234C23.2031 24 24 23.2219 24 22.2703V1.72969C24 0.773438 23.2031 0 22.2234 0ZM7.1203 20.4516H3.55781V8.99531H7.1203V20.4516ZM5.33906 7.43438C4.19531 7.43438 3.27187 6.51094 3.27187 5.37187C3.27187 4.23281 4.19531 3.30937 5.33906 3.30937C6.47812 3.30937 7.40155 4.23281 7.40155 5.37187C7.40155 6.50625 6.47812 7.43438 5.33906 7.43438ZM20.4515 20.4516H16.8937V14.8828C16.8937 13.5562 16.8703 11.8453 15.0422 11.8453C13.1906 11.8453 12.9094 13.2937 12.9094 14.7891V20.4516H9.35624V8.99531H12.7687V10.5609H12.8156C13.289 9.66094 14.4515 8.70938 16.1812 8.70938C19.7859 8.70938 20.4515 11.0813 20.4515 14.1656V20.4516Z" fill="#2151F3"/>
</g>
<defs>
<clipPath id="clip0_4931_3639">
<rect width="24" height="24" fill="white"/>
</clipPath>
</defs>
</svg>
