<svg width="26" height="24" viewBox="0 0 26 24" fill="none" xmlns="http://www.w3.org/2000/svg">
<g clip-path="url(#clip0_4931_3642)">
<path d="M12.8991 0C6.10609 0 0.599136 5.37264 0.599136 12C0.599136 17.6275 4.57056 22.3498 9.92794 23.6467V15.6672H7.39168V12H9.92794V10.4198C9.92794 6.33552 11.8226 4.4424 15.9328 4.4424C16.7121 4.4424 18.0568 4.59168 18.6068 4.74048V8.06448C18.3165 8.03472 17.8122 8.01984 17.1859 8.01984C15.1692 8.01984 14.3899 8.76528 14.3899 10.703V12H18.4075L17.7173 15.6672H14.3899V23.9122C20.4803 23.1946 25.1996 18.1354 25.1996 12C25.1991 5.37264 19.6922 0 12.8991 0Z" fill="#2151F3"/>
</g>
<defs>
<clipPath id="clip0_4931_3642">
<rect width="24.6" height="24" fill="white" transform="translate(0.599136)"/>
</clipPath>
</defs>
</svg>
