<svg width="34" height="32" viewBox="0 0 34 32" fill="none" xmlns="http://www.w3.org/2000/svg">
<g clip-path="url(#clip0_4458_4152)">
<path d="M17.1998 0C8.14241 0 0.799805 7.16352 0.799805 16C0.799805 23.5034 6.09504 29.7997 13.2382 31.529V20.8896H9.85654V16H13.2382V13.8931C13.2382 8.44736 15.7645 5.9232 21.2447 5.9232C22.2838 5.9232 24.0767 6.12224 24.8101 6.32064V10.7526C24.423 10.713 23.7506 10.6931 22.9155 10.6931C20.2266 10.6931 19.1875 11.687 19.1875 14.2707V16H24.5444L23.624 20.8896H19.1875V31.8829C27.3081 30.9261 33.6005 24.1805 33.6005 16C33.5998 7.16352 26.2572 0 17.1998 0Z" fill="#E8DEC4"/>
</g>
<defs>
<clipPath id="clip0_4458_4152">
<rect width="32.8" height="32" fill="white" transform="translate(0.799805)"/>
</clipPath>
</defs>
</svg>
