<svg width="33" height="32" viewBox="0 0 33 32" fill="none" xmlns="http://www.w3.org/2000/svg">
<g clip-path="url(#clip0_4458_4150)">
<path d="M16.4 2.88125C20.7819 2.88125 21.3008 2.9 23.0241 2.975C24.6256 3.04375 25.4905 3.30625 26.067 3.525C26.8294 3.8125 27.3803 4.1625 27.9505 4.71875C28.527 5.28125 28.8794 5.8125 29.1741 6.55625C29.3983 7.11875 29.6673 7.96875 29.7378 9.525C29.8147 11.2125 29.8339 11.7188 29.8339 15.9875C29.8339 20.2625 29.8147 20.7688 29.7378 22.45C29.6673 24.0125 29.3983 24.8563 29.1741 25.4188C28.8794 26.1625 28.5206 26.7 27.9505 27.2563C27.3739 27.8188 26.8294 28.1625 26.067 28.45C25.4905 28.6688 24.6192 28.9313 23.0241 29C21.2944 29.075 20.7755 29.0938 16.4 29.0938C12.0181 29.0938 11.4992 29.075 9.77594 29C8.17438 28.9313 7.30953 28.6688 6.73297 28.45C5.97063 28.1625 5.41969 27.8125 4.84953 27.2563C4.27297 26.6938 3.92063 26.1625 3.62594 25.4188C3.40172 24.8563 3.13266 24.0063 3.06219 22.45C2.98531 20.7625 2.96609 20.2563 2.96609 15.9875C2.96609 11.7125 2.98531 11.2063 3.06219 9.525C3.13266 7.9625 3.40172 7.11875 3.62594 6.55625C3.92063 5.8125 4.27938 5.275 4.84953 4.71875C5.42609 4.15625 5.97063 3.8125 6.73297 3.525C7.30953 3.30625 8.18078 3.04375 9.77594 2.975C11.4992 2.9 12.0181 2.88125 16.4 2.88125ZM16.4 0C11.9477 0 11.3903 0.01875 9.64141 0.09375C7.89891 0.16875 6.70094 0.44375 5.66313 0.8375C4.58047 1.25 3.66438 1.79375 2.75469 2.6875C1.83859 3.575 1.28125 4.46875 0.858438 5.51875C0.454844 6.5375 0.172969 7.7 0.0960938 9.4C0.0192188 11.1125 0 11.6562 0 16C0 20.3438 0.0192188 20.8875 0.0960938 22.5938C0.172969 24.2938 0.454844 25.4625 0.858438 26.475C1.28125 27.5313 1.83859 28.425 2.75469 29.3125C3.66438 30.2 4.58047 30.75 5.65672 31.1562C6.70094 31.55 7.8925 31.825 9.635 31.9C11.3839 31.975 11.9412 31.9937 16.3936 31.9937C20.8459 31.9937 21.4033 31.975 23.1522 31.9C24.8947 31.825 26.0927 31.55 27.1305 31.1562C28.2067 30.75 29.1228 30.2 30.0325 29.3125C30.9422 28.425 31.5059 27.5313 31.9223 26.4813C32.3259 25.4625 32.6078 24.3 32.6847 22.6C32.7616 20.8938 32.7808 20.35 32.7808 16.0063C32.7808 11.6625 32.7616 11.1188 32.6847 9.4125C32.6078 7.7125 32.3259 6.54375 31.9223 5.53125C31.5188 4.46875 30.9614 3.575 30.0453 2.6875C29.1356 1.8 28.2195 1.25 27.1433 0.84375C26.0991 0.45 24.9075 0.175 23.165 0.1C21.4097 0.01875 20.8523 0 16.4 0Z" fill="#E8DEC4"/>
<path d="M16.3998 7.78125C11.7489 7.78125 7.97559 11.4625 7.97559 16C7.97559 20.5375 11.7489 24.2188 16.3998 24.2188C21.0507 24.2188 24.824 20.5375 24.824 16C24.824 11.4625 21.0507 7.78125 16.3998 7.78125ZM16.3998 21.3312C13.3825 21.3312 10.9353 18.9438 10.9353 16C10.9353 13.0563 13.3825 10.6687 16.3998 10.6687C19.4171 10.6687 21.8643 13.0563 21.8643 16C21.8643 18.9438 19.4171 21.3312 16.3998 21.3312Z" fill="#E8DEC4"/>
<path d="M27.1239 7.4562C27.1239 8.5187 26.2398 9.37495 25.1571 9.37495C24.0681 9.37495 23.1904 8.51245 23.1904 7.4562C23.1904 6.3937 24.0745 5.53745 25.1571 5.53745C26.2398 5.53745 27.1239 6.39995 27.1239 7.4562Z" fill="#E8DEC4"/>
</g>
<defs>
<clipPath id="clip0_4458_4150">
<rect width="32.8" height="32" fill="white"/>
</clipPath>
</defs>
</svg>
