<svg width="25" height="24" viewBox="0 0 25 24" fill="none" xmlns="http://www.w3.org/2000/svg">
<g clip-path="url(#clip0_4931_3640)">
<path d="M12.3 2.16094C15.5864 2.16094 15.9756 2.175 17.268 2.23125C18.4692 2.28281 19.1178 2.47969 19.5503 2.64375C20.122 2.85938 20.5352 3.12188 20.9628 3.53906C21.3953 3.96094 21.6595 4.35938 21.8805 4.91719C22.0487 5.33906 22.2505 5.97656 22.3033 7.14375C22.361 8.40938 22.3754 8.78906 22.3754 11.9906C22.3754 15.1969 22.361 15.5766 22.3033 16.8375C22.2505 18.0094 22.0487 18.6422 21.8805 19.0641C21.6595 19.6219 21.3904 20.025 20.9628 20.4422C20.5304 20.8641 20.122 21.1219 19.5503 21.3375C19.1178 21.5016 18.4644 21.6984 17.268 21.75C15.9708 21.8063 15.5816 21.8203 12.3 21.8203C9.01359 21.8203 8.62441 21.8063 7.33195 21.75C6.13078 21.6984 5.48215 21.5016 5.04973 21.3375C4.47797 21.1219 4.06477 20.8594 3.63715 20.4422C3.20473 20.0203 2.94047 19.6219 2.71946 19.0641C2.55129 18.6422 2.3495 18.0047 2.29665 16.8375C2.23899 15.5719 2.22458 15.1922 2.22458 11.9906C2.22458 8.78438 2.23899 8.40469 2.29665 7.14375C2.3495 5.97188 2.55129 5.33906 2.71946 4.91719C2.94047 4.35938 3.20953 3.95625 3.63715 3.53906C4.06957 3.11719 4.47797 2.85938 5.04973 2.64375C5.48215 2.47969 6.13559 2.28281 7.33195 2.23125C8.62441 2.175 9.01359 2.16094 12.3 2.16094ZM12.3 0C8.96074 0 8.54273 0.0140625 7.23105 0.0703125C5.92418 0.126563 5.0257 0.332812 4.24735 0.628125C3.43535 0.9375 2.74829 1.34531 2.06602 2.01563C1.37895 2.68125 0.960944 3.35156 0.643835 4.13906C0.34114 4.90313 0.129734 5.775 0.0720779 7.05C0.0144217 8.33438 7.62939e-06 8.74219 7.62939e-06 12C7.62939e-06 15.2578 0.0144217 15.6656 0.0720779 16.9453C0.129734 18.2203 0.34114 19.0969 0.643835 19.8563C0.960944 20.6484 1.37895 21.3188 2.06602 21.9844C2.74829 22.65 3.43536 23.0625 4.24254 23.3672C5.0257 23.6625 5.91937 23.8688 7.22625 23.925C8.53793 23.9813 8.95593 23.9953 12.2952 23.9953C15.6344 23.9953 16.0524 23.9813 17.3641 23.925C18.671 23.8688 19.5695 23.6625 20.3478 23.3672C21.155 23.0625 21.8421 22.65 22.5244 21.9844C23.2066 21.3188 23.6294 20.6484 23.9417 19.8609C24.2444 19.0969 24.4558 18.225 24.5135 16.95C24.5711 15.6703 24.5856 15.2625 24.5856 12.0047C24.5856 8.74688 24.5711 8.33906 24.5135 7.05938C24.4558 5.78438 24.2444 4.90781 23.9417 4.14844C23.639 3.35156 23.221 2.68125 22.534 2.01563C21.8517 1.35 21.1646 0.9375 20.3574 0.632813C19.5743 0.3375 18.6806 0.13125 17.3737 0.075C16.0573 0.0140625 15.6392 0 12.3 0Z" fill="#2151F3"/>
<path d="M12.3 5.83594C8.8118 5.83594 5.98184 8.59688 5.98184 12C5.98184 15.4031 8.8118 18.1641 12.3 18.1641C15.7882 18.1641 18.6182 15.4031 18.6182 12C18.6182 8.59688 15.7882 5.83594 12.3 5.83594ZM12.3 15.9984C10.037 15.9984 8.2016 14.2078 8.2016 12C8.2016 9.79219 10.037 8.00156 12.3 8.00156C14.563 8.00156 16.3984 9.79219 16.3984 12C16.3984 14.2078 14.563 15.9984 12.3 15.9984Z" fill="#2151F3"/>
<path d="M20.343 5.59238C20.343 6.38926 19.68 7.03145 18.868 7.03145C18.0512 7.03145 17.393 6.38457 17.393 5.59238C17.393 4.79551 18.056 4.15332 18.868 4.15332C19.68 4.15332 20.343 4.8002 20.343 5.59238Z" fill="#2151F3"/>
</g>
<defs>
<clipPath id="clip0_4931_3640">
<rect width="24.6" height="24" fill="white"/>
</clipPath>
</defs>
</svg>
